<svg width="189" height="27" viewBox="0 0 189 27" fill="none" xmlns="http://www.w3.org/2000/svg">
<g clip-path="url(#clip0_7740_78373)">
<rect width="8.74138" height="24.9754" rx="4.37069" transform="matrix(-0.862207 0.506556 0.506556 0.862207 34.0346 0.11035)" fill="#666CFF"/>
<rect width="8.74138" height="24.9754" rx="4.37069" transform="matrix(-0.862207 0.506556 0.506556 0.862207 34.1238 0.109673)" fill="url(#paint0_linear_7740_78373)" fill-opacity="0.4"/>
<rect x="30.1331" y="0.13995" width="8.74138" height="24.9754" rx="4.37069" transform="rotate(29.5653 30.1331 0.13995)" fill="#666CFF"/>
<rect width="8.74138" height="24.9754" rx="4.37069" transform="matrix(-0.862207 0.506556 0.506556 0.862207 16.397 0.244163)" fill="#666CFF"/>
<rect width="8.74138" height="24.9754" rx="4.37069" transform="matrix(-0.862207 0.506556 0.506556 0.862207 16.397 0.244163)" fill="url(#paint1_linear_7740_78373)" fill-opacity="0.4"/>
<rect x="12.4956" y="0.273762" width="8.74138" height="24.9754" rx="4.37069" transform="rotate(29.5653 12.4956 0.273762)" fill="#666CFF"/>
<path d="M55.517 4.54545H60.0682L64.875 16.2727H65.0795L69.8864 4.54545H74.4375V22H70.858V10.6392H70.7131L66.196 21.9148H63.7585L59.2415 10.5966H59.0966V22H55.517V4.54545ZM81.2928 22.2472C80.4575 22.2472 79.7132 22.1023 79.0598 21.8125C78.4064 21.517 77.8893 21.0824 77.5087 20.5085C77.1337 19.929 76.9462 19.2074 76.9462 18.3438C76.9462 17.6165 77.0797 17.0057 77.3467 16.5114C77.6138 16.017 77.9774 15.6193 78.4376 15.3182C78.8979 15.017 79.4206 14.7898 80.0058 14.6364C80.5967 14.483 81.2161 14.375 81.8638 14.3125C82.6251 14.233 83.2388 14.1591 83.7047 14.0909C84.1706 14.017 84.5087 13.9091 84.7189 13.767C84.9291 13.625 85.0342 13.4148 85.0342 13.1364V13.0852C85.0342 12.5455 84.8638 12.1278 84.5229 11.8324C84.1876 11.5369 83.7104 11.3892 83.0911 11.3892C82.4376 11.3892 81.9178 11.5341 81.5314 11.8239C81.145 12.108 80.8893 12.4659 80.7643 12.8977L77.4064 12.625C77.5768 11.8295 77.9121 11.142 78.4121 10.5625C78.9121 9.97727 79.557 9.52841 80.3467 9.21591C81.1422 8.89773 82.0626 8.73864 83.1081 8.73864C83.8354 8.73864 84.5314 8.82386 85.1962 8.99432C85.8666 9.16477 86.4604 9.42898 86.9774 9.78693C87.5001 10.1449 87.9121 10.6051 88.2132 11.1676C88.5143 11.7244 88.6649 12.392 88.6649 13.1705V22H85.2217V20.1847H85.1195C84.9092 20.5938 84.628 20.9545 84.2757 21.267C83.9234 21.5739 83.5001 21.8153 83.0058 21.9915C82.5115 22.1619 81.9405 22.2472 81.2928 22.2472ZM82.3325 19.7415C82.8666 19.7415 83.3382 19.6364 83.7473 19.4261C84.1564 19.2102 84.4774 18.9205 84.7104 18.5568C84.9433 18.1932 85.0598 17.7812 85.0598 17.321V15.9318C84.9462 16.0057 84.7899 16.0739 84.5911 16.1364C84.3979 16.1932 84.1791 16.2472 83.9348 16.2983C83.6905 16.3437 83.4462 16.3864 83.2018 16.4261C82.9575 16.4602 82.7359 16.4915 82.5371 16.5199C82.1109 16.5824 81.7388 16.6818 81.4206 16.8182C81.1024 16.9545 80.8553 17.1392 80.6791 17.3722C80.503 17.5994 80.4149 17.8835 80.4149 18.2244C80.4149 18.7188 80.5939 19.0966 80.9518 19.358C81.3155 19.6136 81.7757 19.7415 82.3325 19.7415ZM98.5947 8.90909V11.6364H90.7112V8.90909H98.5947ZM92.501 5.77273H96.1317V17.9773C96.1317 18.3125 96.1828 18.5739 96.2851 18.7614C96.3874 18.9432 96.5294 19.071 96.7112 19.1449C96.8987 19.2187 97.1146 19.2557 97.3589 19.2557C97.5294 19.2557 97.6999 19.2415 97.8703 19.2131C98.0408 19.179 98.1714 19.1534 98.2624 19.1364L98.8334 21.8381C98.6516 21.8949 98.3959 21.9602 98.0663 22.0341C97.7368 22.1136 97.3362 22.1619 96.8646 22.179C95.9896 22.2131 95.2226 22.0966 94.5635 21.8295C93.9101 21.5625 93.4016 21.1477 93.0379 20.5852C92.6743 20.0227 92.4953 19.3125 92.501 18.4545V5.77273ZM106.935 22.2557C105.588 22.2557 104.429 21.983 103.458 21.4375C102.492 20.8864 101.748 20.108 101.225 19.1023C100.702 18.0909 100.441 16.8949 100.441 15.5142C100.441 14.1676 100.702 12.9858 101.225 11.9688C101.748 10.9517 102.483 10.1591 103.432 9.59091C104.387 9.02273 105.506 8.73864 106.79 8.73864C107.654 8.73864 108.458 8.87784 109.202 9.15625C109.952 9.42898 110.606 9.84091 111.162 10.392C111.725 10.9432 112.162 11.6364 112.475 12.4716C112.787 13.3011 112.944 14.2727 112.944 15.3864V16.3835H101.89V14.1335H109.526C109.526 13.6108 109.412 13.1477 109.185 12.7443C108.958 12.3409 108.642 12.0256 108.239 11.7983C107.841 11.5653 107.378 11.4489 106.85 11.4489C106.299 11.4489 105.81 11.5767 105.384 11.8324C104.963 12.0824 104.634 12.4205 104.395 12.8466C104.157 13.267 104.035 13.7358 104.029 14.2528V16.392C104.029 17.0398 104.148 17.5994 104.387 18.071C104.631 18.5426 104.975 18.9062 105.418 19.1619C105.861 19.4176 106.387 19.5455 106.995 19.5455C107.398 19.5455 107.767 19.4886 108.103 19.375C108.438 19.2614 108.725 19.0909 108.963 18.8636C109.202 18.6364 109.384 18.358 109.509 18.0284L112.867 18.25C112.696 19.0568 112.347 19.7614 111.819 20.3636C111.296 20.9602 110.62 21.4261 109.79 21.7614C108.966 22.0909 108.015 22.2557 106.935 22.2557ZM115.463 22V8.90909H118.983V11.1932H119.119C119.358 10.3807 119.758 9.76705 120.321 9.35227C120.883 8.93182 121.531 8.72159 122.264 8.72159C122.446 8.72159 122.642 8.73295 122.852 8.75568C123.062 8.77841 123.247 8.80966 123.406 8.84943V12.071C123.236 12.0199 123 11.9744 122.699 11.9347C122.398 11.8949 122.122 11.875 121.872 11.875C121.338 11.875 120.861 11.9915 120.44 12.2244C120.025 12.4517 119.696 12.7699 119.452 13.179C119.213 13.5881 119.094 14.0597 119.094 14.5938V22H115.463ZM125.433 22V8.90909H129.064V22H125.433ZM127.257 7.22159C126.717 7.22159 126.254 7.04261 125.868 6.68466C125.487 6.32102 125.297 5.88636 125.297 5.38068C125.297 4.88068 125.487 4.4517 125.868 4.09375C126.254 3.73011 126.717 3.54829 127.257 3.54829C127.797 3.54829 128.257 3.73011 128.638 4.09375C129.024 4.4517 129.217 4.88068 129.217 5.38068C129.217 5.88636 129.024 6.32102 128.638 6.68466C128.257 7.04261 127.797 7.22159 127.257 7.22159ZM135.855 22.2472C135.02 22.2472 134.276 22.1023 133.622 21.8125C132.969 21.517 132.452 21.0824 132.071 20.5085C131.696 19.929 131.509 19.2074 131.509 18.3438C131.509 17.6165 131.642 17.0057 131.909 16.5114C132.176 16.017 132.54 15.6193 133 15.3182C133.46 15.017 133.983 14.7898 134.568 14.6364C135.159 14.483 135.779 14.375 136.426 14.3125C137.188 14.233 137.801 14.1591 138.267 14.0909C138.733 14.017 139.071 13.9091 139.281 13.767C139.492 13.625 139.597 13.4148 139.597 13.1364V13.0852C139.597 12.5455 139.426 12.1278 139.085 11.8324C138.75 11.5369 138.273 11.3892 137.654 11.3892C137 11.3892 136.48 11.5341 136.094 11.8239C135.708 12.108 135.452 12.4659 135.327 12.8977L131.969 12.625C132.139 11.8295 132.475 11.142 132.975 10.5625C133.475 9.97727 134.119 9.52841 134.909 9.21591C135.705 8.89773 136.625 8.73864 137.671 8.73864C138.398 8.73864 139.094 8.82386 139.759 8.99432C140.429 9.16477 141.023 9.42898 141.54 9.78693C142.063 10.1449 142.475 10.6051 142.776 11.1676C143.077 11.7244 143.227 12.392 143.227 13.1705V22H139.784V20.1847H139.682C139.472 20.5938 139.19 20.9545 138.838 21.267C138.486 21.5739 138.063 21.8153 137.568 21.9915C137.074 22.1619 136.503 22.2472 135.855 22.2472ZM136.895 19.7415C137.429 19.7415 137.901 19.6364 138.31 19.4261C138.719 19.2102 139.04 18.9205 139.273 18.5568C139.506 18.1932 139.622 17.7812 139.622 17.321V15.9318C139.509 16.0057 139.352 16.0739 139.154 16.1364C138.96 16.1932 138.742 16.2472 138.497 16.2983C138.253 16.3437 138.009 16.3864 137.764 16.4261C137.52 16.4602 137.298 16.4915 137.1 16.5199C136.673 16.5824 136.301 16.6818 135.983 16.8182C135.665 16.9545 135.418 17.1392 135.242 17.3722C135.065 17.5994 134.977 17.8835 134.977 18.2244C134.977 18.7188 135.156 19.0966 135.514 19.358C135.878 19.6136 136.338 19.7415 136.895 19.7415ZM149.825 4.54545V22H146.194V4.54545H149.825ZM152.883 22V8.90909H156.514V22H152.883ZM154.707 7.22159C154.167 7.22159 153.704 7.04261 153.318 6.68466C152.937 6.32102 152.747 5.88636 152.747 5.38068C152.747 4.88068 152.937 4.4517 153.318 4.09375C153.704 3.73011 154.167 3.54829 154.707 3.54829C155.247 3.54829 155.707 3.73011 156.088 4.09375C156.474 4.4517 156.667 4.88068 156.667 5.38068C156.667 5.88636 156.474 6.32102 156.088 6.68466C155.707 7.04261 155.247 7.22159 154.707 7.22159ZM159.504 22V19.8352L165.913 11.9006V11.8068H159.726V8.90909H170.285V11.2699L164.268 19.0085V19.1023H170.507V22H159.504ZM179.024 22.2557C177.678 22.2557 176.518 21.983 175.547 21.4375C174.581 20.8864 173.837 20.108 173.314 19.1023C172.791 18.0909 172.53 16.8949 172.53 15.5142C172.53 14.1676 172.791 12.9858 173.314 11.9688C173.837 10.9517 174.572 10.1591 175.521 9.59091C176.476 9.02273 177.595 8.73864 178.879 8.73864C179.743 8.73864 180.547 8.87784 181.291 9.15625C182.041 9.42898 182.695 9.84091 183.251 10.392C183.814 10.9432 184.251 11.6364 184.564 12.4716C184.876 13.3011 185.033 14.2727 185.033 15.3864V16.3835H173.979V14.1335H181.615C181.615 13.6108 181.501 13.1477 181.274 12.7443C181.047 12.3409 180.732 12.0256 180.328 11.7983C179.93 11.5653 179.467 11.4489 178.939 11.4489C178.388 11.4489 177.899 11.5767 177.473 11.8324C177.053 12.0824 176.723 12.4205 176.484 12.8466C176.246 13.267 176.124 13.7358 176.118 14.2528V16.392C176.118 17.0398 176.237 17.5994 176.476 18.071C176.72 18.5426 177.064 18.9062 177.507 19.1619C177.95 19.4176 178.476 19.5455 179.084 19.5455C179.487 19.5455 179.857 19.4886 180.192 19.375C180.527 19.2614 180.814 19.0909 181.053 18.8636C181.291 18.6364 181.473 18.358 181.598 18.0284L184.956 18.25C184.786 19.0568 184.436 19.7614 183.908 20.3636C183.385 20.9602 182.709 21.4261 181.879 21.7614C181.055 22.0909 180.104 22.2557 179.024 22.2557Z" fill="#4C4E64" fill-opacity="0.87"/>
</g>
<defs>
<linearGradient id="paint0_linear_7740_78373" x1="4.37069" y1="0" x2="4.37069" y2="24.9754" gradientUnits="userSpaceOnUse">
<stop/>
<stop offset="1" stop-opacity="0"/>
</linearGradient>
<linearGradient id="paint1_linear_7740_78373" x1="4.37069" y1="0" x2="4.37069" y2="24.9754" gradientUnits="userSpaceOnUse">
<stop/>
<stop offset="1" stop-opacity="0"/>
</linearGradient>
<clipPath id="clip0_7740_78373">
<rect width="188.992" height="26.3528" fill="white" transform="translate(0.008255 0.0149333)"/>
</clipPath>
</defs>
</svg>
